<svg xmlns="http://www.w3.org/2000/svg" width="42.227" height="50.298" viewBox="0 0 42.227 50.298">
  <g id="Grupo_22" data-name="Grupo 22" transform="translate(3341.854 -760.317)">
    <path id="Trazado_28" data-name="Trazado 28" d="M-3309.775,784.487A19.612,19.612,0,0,1-3301,800.8c.057,2.251-1.3,3.672-3.06,4.781a23.566,23.566,0,0,1-9.72,3.062c-2.3.3-4.628.407-6.943.6-4.686-.14-9.334-.5-13.718-2.236a15.734,15.734,0,0,1-4.68-2.891,4.8,4.8,0,0,1-1.357-3.249,19.3,19.3,0,0,1,8.772-16.409" fill="none" stroke="#1e1d28" stroke-linecap="round" stroke-linejoin="round" stroke-width="2.747"/>
    <path id="Trazado_29" data-name="Trazado 29" d="M-3307.724,774.733a13.027,13.027,0,0,1-12.928,13.088,13.027,13.027,0,0,1-13.163-12.853,13.032,13.032,0,0,1,12.992-13.277A13.026,13.026,0,0,1-3307.724,774.733Z" fill="none" stroke="#1e1d28" stroke-linecap="round" stroke-linejoin="round" stroke-width="2.747"/>
  </g>
</svg>
